<svg width="36" height="36" viewBox="0 0 36 36" fill="none" xmlns="http://www.w3.org/2000/svg">
<circle cx="18" cy="18" r="18" fill="#F0EAF9"/>
<path d="M28.4141 18.6642L21.8516 25.2267C21.2656 25.8126 20.25 25.4024 20.25 24.5626V20.8126H14.9375C14.418 20.8126 14 20.3946 14 19.8751V16.1251C14 15.6056 14.418 15.1876 14.9375 15.1876H20.25V11.4376C20.25 10.6017 21.2617 10.1876 21.8516 10.7735L28.4141 17.336C28.7773 17.7032 28.7773 18.297 28.4141 18.6642ZM16.5 25.0313V23.4688C16.5 23.211 16.2891 23.0001 16.0312 23.0001H12.75C12.0586 23.0001 11.5 22.4415 11.5 21.7501V14.2501C11.5 13.5587 12.0586 13.0001 12.75 13.0001H16.0312C16.2891 13.0001 16.5 12.7892 16.5 12.5313V10.9688C16.5 10.711 16.2891 10.5001 16.0312 10.5001H12.75C10.6797 10.5001 9 12.1798 9 14.2501V21.7501C9 23.8204 10.6797 25.5001 12.75 25.5001H16.0312C16.2891 25.5001 16.5 25.2892 16.5 25.0313Z" fill="#8F63CF"/>
</svg>
