<svg width="36" height="36" viewBox="0 0 36 36" fill="none" xmlns="http://www.w3.org/2000/svg">
<circle cx="18" cy="18" r="18" fill="#F1F1F1"/>
<path d="M18 8C12.4758 8 8 12.4758 8 18C8 23.5242 12.4758 28 18 28C23.5242 28 28 23.5242 28 18C28 12.4758 23.5242 8 18 8ZM22.9032 20.625C23.0927 20.8145 23.0927 21.121 22.9032 21.3105L21.3065 22.9032C21.1169 23.0927 20.8105 23.0927 20.621 22.9032L18 20.2581L15.375 22.9032C15.1855 23.0927 14.879 23.0927 14.6895 22.9032L13.0968 21.3065C12.9073 21.1169 12.9073 20.8105 13.0968 20.621L15.7419 18L13.0968 15.375C12.9073 15.1855 12.9073 14.879 13.0968 14.6895L14.6935 13.0927C14.8831 12.9032 15.1895 12.9032 15.379 13.0927L18 15.7419L20.625 13.0968C20.8145 12.9073 21.121 12.9073 21.3105 13.0968L22.9073 14.6935C23.0968 14.8831 23.0968 15.1895 22.9073 15.379L20.2581 18L22.9032 20.625Z" fill="#BABABA"/>
</svg>
